<svg width="34" height="34" viewBox="0 0 34 34" fill="none" xmlns="http://www.w3.org/2000/svg">
<path d="M9.20833 19.8333C9.77192 19.8333 10.3124 19.6094 10.7109 19.2109C11.1095 18.8124 11.3333 18.2719 11.3333 17.7083C11.3333 17.1447 11.1095 16.6042 10.7109 16.2057C10.3124 15.8072 9.77192 15.5833 9.20833 15.5833C8.64475 15.5833 8.10425 15.8072 7.70573 16.2057C7.30722 16.6042 7.08333 17.1447 7.08333 17.7083C7.08333 18.2719 7.30722 18.8124 7.70573 19.2109C8.10425 19.6094 8.64475 19.8333 9.20833 19.8333ZM11.3333 24.7917C11.3333 25.3553 11.1095 25.8958 10.7109 26.2943C10.3124 26.6928 9.77192 26.9167 9.20833 26.9167C8.64475 26.9167 8.10425 26.6928 7.70573 26.2943C7.30722 25.8958 7.08333 25.3553 7.08333 24.7917C7.08333 24.2281 7.30722 23.6876 7.70573 23.2891C8.10425 22.8906 8.64475 22.6667 9.20833 22.6667C9.77192 22.6667 10.3124 22.8906 10.7109 23.2891C11.1095 23.6876 11.3333 24.2281 11.3333 24.7917ZM17 26.9167C17.5636 26.9167 18.1041 26.6928 18.5026 26.2943C18.9011 25.8958 19.125 25.3553 19.125 24.7917C19.125 24.2281 18.9011 23.6876 18.5026 23.2891C18.1041 22.8906 17.5636 22.6667 17 22.6667C16.4364 22.6667 15.8959 22.8906 15.4974 23.2891C15.0989 23.6876 14.875 24.2281 14.875 24.7917C14.875 25.3553 15.0989 25.8958 15.4974 26.2943C15.8959 26.6928 16.4364 26.9167 17 26.9167ZM19.125 17.7083C19.125 18.2719 18.9011 18.8124 18.5026 19.2109C18.1041 19.6094 17.5636 19.8333 17 19.8333C16.4364 19.8333 15.8959 19.6094 15.4974 19.2109C15.0989 18.8124 14.875 18.2719 14.875 17.7083C14.875 17.1447 15.0989 16.6042 15.4974 16.2057C15.8959 15.8072 16.4364 15.5833 17 15.5833C17.5636 15.5833 18.1041 15.8072 18.5026 16.2057C18.9011 16.6042 19.125 17.1447 19.125 17.7083ZM24.7917 19.8333C25.3553 19.8333 25.8958 19.6094 26.2943 19.2109C26.6928 18.8124 26.9167 18.2719 26.9167 17.7083C26.9167 17.1447 26.6928 16.6042 26.2943 16.2057C25.8958 15.8072 25.3553 15.5833 24.7917 15.5833C24.2281 15.5833 23.6876 15.8072 23.2891 16.2057C22.8906 16.6042 22.6667 17.1447 22.6667 17.7083C22.6667 18.2719 22.8906 18.8124 23.2891 19.2109C23.6876 19.6094 24.2281 19.8333 24.7917 19.8333ZM0 7.08333C0 5.20472 0.746278 3.40304 2.07466 2.07466C3.40304 0.746278 5.20472 0 7.08333 0H26.9167C28.7953 0 30.597 0.746278 31.9253 2.07466C33.2537 3.40304 34 5.20472 34 7.08333V26.9167C34 28.7953 33.2537 30.597 31.9253 31.9253C30.597 33.2537 28.7953 34 26.9167 34H7.08333C5.20472 34 3.40304 33.2537 2.07466 31.9253C0.746278 30.597 0 28.7953 0 26.9167V7.08333ZM7.08333 2.83333C5.95616 2.83333 4.87516 3.2811 4.07813 4.07813C3.2811 4.87516 2.83333 5.95616 2.83333 7.08333V8.5H31.1667V7.08333C31.1667 5.95616 30.7189 4.87516 29.9219 4.07813C29.1248 3.2811 28.0438 2.83333 26.9167 2.83333H7.08333ZM2.83333 26.9167C2.83333 28.0438 3.2811 29.1248 4.07813 29.9219C4.87516 30.7189 5.95616 31.1667 7.08333 31.1667H26.9167C28.0438 31.1667 29.1248 30.7189 29.9219 29.9219C30.7189 29.1248 31.1667 28.0438 31.1667 26.9167V11.3333H2.83333V26.9167Z" fill="black"/>
</svg>
