<svg width="36" height="36" viewBox="0 0 36 36" fill="none" xmlns="http://www.w3.org/2000/svg">
<path d="M7.30607 29.9014C8.27939 27.6083 10.5519 26 13.2 26H22.8C25.4481 26 27.7206 27.6083 28.6939 29.9015M24.4 14C24.4 17.5346 21.5346 20.4 18 20.4C14.4654 20.4 11.6 17.5346 11.6 14C11.6 10.4654 14.4654 7.6 18 7.6C21.5346 7.6 24.4 10.4654 24.4 14ZM34 18C34 26.8366 26.8366 34 18 34C9.16344 34 2 26.8366 2 18C2 9.16344 9.16344 2 18 2C26.8366 2 34 9.16344 34 18Z" stroke="white" stroke-width="3.2" stroke-linecap="round" stroke-linejoin="round"/>
</svg>
