<svg width="50" height="50" viewBox="0 0 50 50" fill="none" xmlns="http://www.w3.org/2000/svg">
<path d="M12.5 22.3958C12.5 21.7803 12.6212 21.1707 12.8568 20.602C13.0924 20.0333 13.4377 19.5165 13.8729 19.0813C14.3082 18.646 14.825 18.3007 15.3937 18.0651C15.9624 17.8296 16.5719 17.7083 17.1875 17.7083C17.8031 17.7083 18.4126 17.8296 18.9813 18.0651C19.55 18.3007 20.0668 18.646 20.5021 19.0813C20.9373 19.5165 21.2826 20.0333 21.5182 20.602C21.7538 21.1707 21.875 21.7803 21.875 22.3958C21.875 23.639 21.3811 24.8313 20.5021 25.7104C19.623 26.5895 18.4307 27.0833 17.1875 27.0833C15.9443 27.0833 14.752 26.5895 13.8729 25.7104C12.9939 24.8313 12.5 23.639 12.5 22.3958ZM17.1875 20.8333C16.7731 20.8333 16.3757 20.998 16.0826 21.291C15.7896 21.584 15.625 21.9814 15.625 22.3958C15.625 22.8102 15.7896 23.2077 16.0826 23.5007C16.3757 23.7937 16.7731 23.9583 17.1875 23.9583C17.6019 23.9583 17.9993 23.7937 18.2924 23.5007C18.5854 23.2077 18.75 22.8102 18.75 22.3958C18.75 21.9814 18.5854 21.584 18.2924 21.291C17.9993 20.998 17.6019 20.8333 17.1875 20.8333ZM17.1875 29.1667C15.9443 29.1667 14.752 29.6605 13.8729 30.5396C12.9939 31.4187 12.5 32.611 12.5 33.8542C12.5 35.0974 12.9939 36.2897 13.8729 37.1687C14.752 38.0478 15.9443 38.5417 17.1875 38.5417C18.4307 38.5417 19.623 38.0478 20.5021 37.1687C21.3811 36.2897 21.875 35.0974 21.875 33.8542C21.875 32.611 21.3811 31.4187 20.5021 30.5396C19.623 29.6605 18.4307 29.1667 17.1875 29.1667ZM15.625 33.8542C15.625 33.4398 15.7896 33.0423 16.0826 32.7493C16.3757 32.4563 16.7731 32.2917 17.1875 32.2917C17.6019 32.2917 17.9993 32.4563 18.2924 32.7493C18.5854 33.0423 18.75 33.4398 18.75 33.8542C18.75 34.2686 18.5854 34.666 18.2924 34.959C17.9993 35.252 17.6019 35.4167 17.1875 35.4167C16.7731 35.4167 16.3757 35.252 16.0826 34.959C15.7896 34.666 15.625 34.2686 15.625 33.8542ZM25 22.3958C25 21.9814 25.1646 21.584 25.4576 21.291C25.7507 20.998 26.1481 20.8333 26.5625 20.8333H35.9375C36.3519 20.8333 36.7493 20.998 37.0424 21.291C37.3354 21.584 37.5 21.9814 37.5 22.3958C37.5 22.8102 37.3354 23.2077 37.0424 23.5007C36.7493 23.7937 36.3519 23.9583 35.9375 23.9583H26.5625C26.1481 23.9583 25.7507 23.7937 25.4576 23.5007C25.1646 23.2077 25 22.8102 25 22.3958ZM26.5625 32.2917C26.1481 32.2917 25.7507 32.4563 25.4576 32.7493C25.1646 33.0423 25 33.4398 25 33.8542C25 34.2686 25.1646 34.666 25.4576 34.959C25.7507 35.252 26.1481 35.4167 26.5625 35.4167H35.9375C36.3519 35.4167 36.7493 35.252 37.0424 34.959C37.3354 34.666 37.5 34.2686 37.5 33.8542C37.5 33.4398 37.3354 33.0423 37.0424 32.7493C36.7493 32.4563 36.3519 32.2917 35.9375 32.2917H26.5625ZM12.5 14.0625C12.5 13.6481 12.6646 13.2507 12.9576 12.9576C13.2507 12.6646 13.6481 12.5 14.0625 12.5H35.9375C36.3519 12.5 36.7493 12.6646 37.0424 12.9576C37.3354 13.2507 37.5 13.6481 37.5 14.0625C37.5 14.4769 37.3354 14.8743 37.0424 15.1674C36.7493 15.4604 36.3519 15.625 35.9375 15.625H14.0625C13.6481 15.625 13.2507 15.4604 12.9576 15.1674C12.6646 14.8743 12.5 14.4769 12.5 14.0625ZM13.0208 6.25C11.2251 6.25 9.50291 6.96335 8.23313 8.23313C6.96335 9.50291 6.25 11.2251 6.25 13.0208V36.9792C6.25 38.7749 6.96335 40.4971 8.23313 41.7669C9.50291 43.0366 11.2251 43.75 13.0208 43.75H36.9792C38.7749 43.75 40.4971 43.0366 41.7669 41.7669C43.0366 40.4971 43.75 38.7749 43.75 36.9792V13.0208C43.75 11.2251 43.0366 9.50291 41.7669 8.23313C40.4971 6.96335 38.7749 6.25 36.9792 6.25H13.0208ZM9.375 13.0208C9.375 11.0083 11.0083 9.375 13.0208 9.375H36.9792C38.9917 9.375 40.625 11.0083 40.625 13.0208V36.9792C40.625 37.9461 40.2409 38.8734 39.5572 39.5572C38.8734 40.2409 37.9461 40.625 36.9792 40.625H13.0208C12.0539 40.625 11.1266 40.2409 10.4428 39.5572C9.75911 38.8734 9.375 37.9461 9.375 36.9792V13.0208Z" fill="white"/>
</svg>
