<svg width="42" height="42" viewBox="0 0 42 42" fill="none" xmlns="http://www.w3.org/2000/svg">
<path d="M29.0008 32.1769C25.3884 34.9808 20.8433 36.3028 16.2905 35.8736C11.7378 35.4445 7.5197 33.2965 4.49487 29.867C1.47004 26.4374 -0.13417 21.984 0.00879637 17.4133C0.151762 12.8427 2.03115 8.49824 5.26441 5.26441C8.49824 2.03115 12.8427 0.151762 17.4133 0.00879637C21.984 -0.13417 26.4374 1.47004 29.867 4.49487C33.2965 7.51971 35.4445 11.7378 35.8736 16.2905C36.3028 20.8433 34.9808 25.3884 32.1769 29.0008L41.2855 38.1095C41.5813 38.3842 41.7976 38.7335 41.9115 39.1208C42.0254 39.5081 42.0327 39.9189 41.9327 40.31C41.8327 40.701 41.6291 41.0579 41.3433 41.343C41.0575 41.6281 40.7001 41.8308 40.3088 41.9297C39.9181 42.0299 39.5077 42.0229 39.1207 41.9095C38.7337 41.7962 38.3844 41.5806 38.1095 41.2855L29.0008 32.1769ZM31.4578 17.9746C31.4844 16.1876 31.1555 14.4132 30.4901 12.7545C29.8246 11.0959 28.8361 9.58608 27.5818 8.31298C26.3275 7.03989 24.8327 6.0289 23.1841 5.33884C21.5355 4.64877 19.7662 4.2934 17.9791 4.2934C16.1919 4.2934 14.4226 4.64877 12.774 5.33884C11.1255 6.0289 9.63059 7.03989 8.37634 8.31298C7.12208 9.58608 6.13349 11.0959 5.46808 12.7545C4.80267 14.4132 4.47372 16.1876 4.50036 17.9746C4.55315 21.5145 5.99644 24.8917 8.51845 27.3763C11.0405 29.861 14.4387 31.2538 17.9791 31.2538C21.5194 31.2538 24.9177 29.861 27.4397 27.3763C29.9617 24.8917 31.405 21.5145 31.4578 17.9746Z" fill="white"/>
</svg>
